<svg xmlns="http://www.w3.org/2000/svg" version="1.1" xmlns:xlink="http://www.w3.org/1999/xlink" xmlns:svgjs="http://svgjs.dev/svgjs" width="1000" height="1000"><g clip-path="url(#SvgjsClipPath1217)"><rect width="1000" height="1000" fill="#ffffff"></rect><g transform="matrix(7.6923076923076925,0,0,7.6923076923076925,0,407.6923076923077)"><svg xmlns="http://www.w3.org/2000/svg" version="1.1" xmlns:xlink="http://www.w3.org/1999/xlink" xmlns:svgjs="http://svgjs.dev/svgjs" width="130" height="24"><svg xmlns="http://www.w3.org/2000/svg" viewBox="0 0 130 24" class="h-6 w-auto inline-block">
  <!-- Icône camera alignée -->
  <g transform="translate(15 5.5)">
    <path stroke="currentColor" fill="none" stroke-width="2" d="M3 9a2 2 0 012-2h.93a2 2 0 001.664-.89l.812-1.22A2 2 0 0110.07 4h3.86a2 2 0 011.664.89l.812 1.22A2 2 0 0018.07 7H19a2 2 0 012 2v9a2 2 0 01-2 2H5a2 2 0 01-2-2V9z"></path>
    <path stroke="currentColor" fill="none" stroke-width="2" d="M15 13a3 3 0 11-6 0 3 3 0 016 0z"></path>
  </g>

  <!-- Texte aligné -->
  <text x="80" y="16" font-family="Arial" font-weight="bold" font-size="14" fill="currentColor" dominant-baseline="middle" text-anchor="middle" svgjs:data="{&quot;leading&quot;:&quot;1.3&quot;}">
    MediaRent
  </text>
</svg></svg></g></g><defs><clipPath id="SvgjsClipPath1217"><rect width="1000" height="1000" x="0" y="0" rx="350" ry="350"></rect></clipPath></defs></svg>